<svg id="svg" version="1.1" xmlns="http://www.w3.org/2000/svg" xmlns:xlink="http://www.w3.org/1999/xlink" width="400" height="400" viewBox="0, 0, 400,400"><g id="svgg"><path id="path0" d="M171.900 151.882 C 172.395 151.978,173.205 151.978,173.700 151.882 C 174.195 151.787,173.790 151.709,172.800 151.709 C 171.810 151.709,171.405 151.787,171.900 151.882 M166.707 152.290 C 167.426 152.379,168.506 152.377,169.107 152.286 C 169.708 152.195,169.120 152.122,167.800 152.124 C 166.480 152.126,165.988 152.201,166.707 152.290 M151.105 154.283 C 151.602 154.379,152.322 154.375,152.705 154.275 C 153.087 154.175,152.680 154.096,151.800 154.101 C 150.920 154.105,150.607 154.187,151.105 154.283 M143.100 154.693 C 144.035 154.777,145.565 154.777,146.500 154.693 C 147.435 154.609,146.670 154.540,144.800 154.540 C 142.930 154.540,142.165 154.609,143.100 154.693 M130.400 155.831 L 128.600 156.384 130.200 156.155 C 131.080 156.030,132.070 155.769,132.400 155.576 C 133.232 155.089,132.524 155.179,130.400 155.831 M116.307 157.090 C 117.026 157.179,118.106 157.177,118.707 157.086 C 119.308 156.995,118.720 156.922,117.400 156.924 C 116.080 156.926,115.588 157.001,116.307 157.090 M91.091 159.089 C 91.801 159.177,93.061 159.179,93.891 159.092 C 94.721 159.005,94.140 158.933,92.600 158.931 C 91.060 158.929,90.381 159.000,91.091 159.089 M218.306 303.811 C 217.484 304.575,216.954 305.200,217.127 305.200 C 217.301 305.200,218.054 304.570,218.800 303.800 C 220.541 302.003,220.243 302.010,218.306 303.811 M328.509 324.400 C 328.509 325.390,328.587 325.795,328.682 325.300 C 328.778 324.805,328.778 323.995,328.682 323.500 C 328.587 323.005,328.509 323.410,328.509 324.400 M134.093 343.200 C 134.093 343.970,134.175 344.285,134.276 343.900 C 134.376 343.515,134.376 342.885,134.276 342.500 C 134.175 342.115,134.093 342.430,134.093 343.200 " stroke="none" fill="#040404" fill-rule="evenodd"></path><path id="path1" d="" stroke="none" fill="#9c9c9c" fill-rule="evenodd"></path><path id="path2" d="" stroke="none" fill="#646464" fill-rule="evenodd"></path><path id="path3" d="" stroke="none" fill="#5c5c5c" fill-rule="evenodd"></path><path id="path4" d="" stroke="none" fill="#484848" fill-rule="evenodd"></path></g></svg>