<svg id="svg" version="1.1" xmlns="http://www.w3.org/2000/svg" xmlns:xlink="http://www.w3.org/1999/xlink" width="400" height="400" viewBox="0, 0, 400,400"><g id="svgg"><path id="path0" d="M222.100 153.876 C 222.485 153.976,223.115 153.976,223.500 153.876 C 223.885 153.775,223.570 153.693,222.800 153.693 C 222.030 153.693,221.715 153.775,222.100 153.876 M199.400 155.814 C 198.740 156.117,198.481 156.372,198.824 156.382 C 199.166 156.392,199.796 156.136,200.224 155.813 C 201.172 155.096,200.969 155.096,199.400 155.814 M194.700 156.682 C 195.195 156.778,196.005 156.778,196.500 156.682 C 196.995 156.587,196.590 156.509,195.600 156.509 C 194.610 156.509,194.205 156.587,194.700 156.682 M168.900 158.676 C 169.285 158.776,169.915 158.776,170.300 158.676 C 170.685 158.575,170.370 158.493,169.600 158.493 C 168.830 158.493,168.515 158.575,168.900 158.676 M160.307 159.090 C 161.026 159.179,162.106 159.177,162.707 159.086 C 163.308 158.995,162.720 158.922,161.400 158.924 C 160.080 158.926,159.588 159.001,160.307 159.090 M138.900 161.076 C 139.285 161.176,139.915 161.176,140.300 161.076 C 140.685 160.975,140.370 160.893,139.600 160.893 C 138.830 160.893,138.515 160.975,138.900 161.076 M135.983 184.900 C 137.641 186.666,138.000 186.984,138.000 186.683 C 138.000 186.619,137.145 185.764,136.100 184.783 L 134.200 183.000 135.983 184.900 M194.509 271.200 C 194.509 272.190,194.587 272.595,194.682 272.100 C 194.778 271.605,194.778 270.795,194.682 270.300 C 194.587 269.805,194.509 270.210,194.509 271.200 M271.000 300.235 L 269.800 301.266 271.100 300.406 C 271.815 299.933,272.400 299.468,272.400 299.373 C 272.400 299.073,272.231 299.178,271.000 300.235 M183.701 318.600 C 183.705 319.480,183.787 319.793,183.883 319.295 C 183.979 318.798,183.975 318.078,183.875 317.695 C 183.775 317.313,183.696 317.720,183.701 318.600 M181.709 326.800 C 181.709 327.790,181.787 328.195,181.882 327.700 C 181.978 327.205,181.978 326.395,181.882 325.900 C 181.787 325.405,181.709 325.810,181.709 326.800 M174.254 356.256 C 173.941 358.544,173.928 359.805,174.223 359.510 C 174.484 359.249,174.910 354.400,174.671 354.400 C 174.582 354.400,174.394 355.235,174.254 356.256 " stroke="none" fill="#040404" fill-rule="evenodd"></path><path id="path1" d="" stroke="none" fill="#6c6c6c" fill-rule="evenodd"></path><path id="path2" d="" stroke="none" fill="#949494" fill-rule="evenodd"></path><path id="path3" d="" stroke="none" fill="#353535" fill-rule="evenodd"></path><path id="path4" d="" stroke="none" fill="#4c4c4c" fill-rule="evenodd"></path></g></svg>