<svg id="svg" version="1.1" xmlns="http://www.w3.org/2000/svg" xmlns:xlink="http://www.w3.org/1999/xlink" width="400" height="400" viewBox="0, 0, 400,400"><g id="svgg"><path id="path0" d="M173.300 107.076 C 173.685 107.176,174.315 107.176,174.700 107.076 C 175.085 106.975,174.770 106.893,174.000 106.893 C 173.230 106.893,172.915 106.975,173.300 107.076 M150.305 109.083 C 150.802 109.179,151.522 109.175,151.905 109.075 C 152.287 108.975,151.880 108.896,151.000 108.901 C 150.120 108.905,149.807 108.987,150.305 109.083 M143.200 131.800 C 143.946 132.570,144.647 133.200,144.757 133.200 C 144.867 133.200,144.346 132.570,143.600 131.800 C 142.854 131.030,142.153 130.400,142.043 130.400 C 141.933 130.400,142.454 131.030,143.200 131.800 M277.465 249.176 C 274.647 250.828,274.226 251.434,276.902 249.985 C 278.157 249.305,279.289 248.580,279.416 248.374 C 279.735 247.858,279.655 247.891,277.465 249.176 M188.120 284.000 C 188.120 285.210,188.195 285.705,188.287 285.100 C 188.378 284.495,188.378 283.505,188.287 282.900 C 188.195 282.295,188.120 282.790,188.120 284.000 " stroke="none" fill="#040404" fill-rule="evenodd"></path><path id="path1" d="" stroke="none" fill="#a2a2a2" fill-rule="evenodd"></path><path id="path2" d="" stroke="none" fill="#8c8c8c" fill-rule="evenodd"></path><path id="path3" d="" stroke="none" fill="#646464" fill-rule="evenodd"></path><path id="path4" d="" stroke="none" fill="#464646" fill-rule="evenodd"></path></g></svg>